# xmcd
#
# Track frame offsets: 
#        150
#        24327
#        44521
#        56638
#        68743
#        94366
#        107938
#        127489
#        146218
#        161157
#        177415
#        204421
#        217627
#        237102
#        251140
#        263639
#
# Disc length: 3700 seconds
#
# Revision: 0
# Processed by: cddbd v1.5.2PL0 Copyright (c) Steve Scherf et al.
# Submitted via: ExactAudioCopy v0.99pb5
#
DISCID=f40e7210
DTITLE=Hat Fitz and Cara Robinson - Beauty and the Beast
DYEAR=2010
DGENRE=Blues
TTITLE0=Black Cat Bone
TTITLE1=Gymea Bay
TTITLE2=Fitzmullholand
TTITLE3=Where It All Began
TTITLE4=Hard Times
TTITLE5=Mad About You
TTITLE6=Nobody's Fault but mine
TTITLE7=Deliah
TTITLE8=Wont Be Too Late
TTITLE9=Little Tom Bob
TTITLE10=Lay Me Down
TTITLE11=Wicklow Jeel
TTITLE12=Liquor Store
TTITLE13=Backdoor Man
TTITLE14=Euronator
TTITLE15=Watchin C.R
EXTD=
EXTT0=
EXTT1=
EXTT2=
EXTT3=
EXTT4=
EXTT5=
EXTT6=
EXTT7=
EXTT8=
EXTT9=
EXTT10=
EXTT11=
EXTT12=
EXTT13=
EXTT14=
EXTT15=
PLAYORDER=
